<svg width="1388" height="2044" viewBox="0 0 1388 2044" fill="none" xmlns="http://www.w3.org/2000/svg">
<g opacity="0.1" clip-path="url(#clip0_23_283)">
<path fill-rule="evenodd" clip-rule="evenodd" d="M383.678 0C175.275 0 7.66666 174.847 7.66666 389.041C7.66666 519.261 69.668 634.918 164.97 705.521C115.852 742.32 76.0393 790.115 48.7225 845.074C21.4056 900.033 7.34465 960.627 7.66666 1022C7.66666 1152.3 69.668 1267.88 164.97 1338.48C115.852 1375.28 76.0393 1423.07 48.7225 1478.03C21.4056 1532.99 7.34465 1593.59 7.66666 1654.96C7.66666 1869.15 175.275 2044 383.678 2044C591.995 2044 759.688 1869.15 759.688 1654.96V1326.04C825.55 1380.96 908.571 1411.06 994.323 1411.13C1202.73 1411.04 1370.33 1236.19 1370.33 1022C1370.68 960.624 1356.62 900.022 1329.31 845.06C1301.99 790.098 1262.16 742.306 1213.03 705.521C1262.15 668.721 1301.96 620.927 1329.28 565.967C1356.59 511.008 1370.66 450.414 1370.33 389.041C1370.33 174.847 1202.73 0 994.323 0L383.678 0V0ZM148.958 389.041C148.958 253.541 254.735 145.039 383.678 145.039L618.312 145.039V633.044H383.678C254.735 633.044 148.958 524.456 148.958 389.041V389.041ZM994.323 632.959H759.688V144.954H994.323C1123.35 144.954 1229.04 253.541 1229.04 389.041C1229.04 524.456 1123.35 632.959 994.323 632.959ZM149.043 1022C149.043 886.585 254.82 777.997 383.763 777.997H618.397V1266H383.678C254.65 1266 148.958 1157.41 148.958 1022H149.043ZM759.688 1022C759.688 886.585 865.465 777.997 994.408 777.997C1123.44 777.997 1229.13 886.5 1229.13 1022C1229.13 1157.41 1123.44 1266 994.408 1266C865.465 1266 759.774 1157.5 759.774 1022H759.688ZM149.043 1654.96C149.043 1519.54 254.82 1411.04 383.763 1411.04H618.397V1654.96C618.397 1790.46 512.79 1898.96 383.763 1898.96C254.82 1898.96 149.043 1790.46 149.043 1654.96Z" fill="#F05D5E"/>
</g>
<defs>
<clipPath id="clip0_23_283">
<rect width="2044" height="2044" fill="white" transform="translate(-333)"/>
</clipPath>
</defs>
</svg>
