<svg width="1388" height="444" viewBox="0 0 1388 444" fill="none" xmlns="http://www.w3.org/2000/svg">
<mask id="mask0_15_212" style="mask-type:alpha" maskUnits="userSpaceOnUse" x="0" y="0" width="1388" height="444">
<rect width="1388" height="444" fill="#D9D9D9"/>
</mask>
<g mask="url(#mask0_15_212)">
<path fill-rule="evenodd" clip-rule="evenodd" d="M0 78.5664L57.8333 65.0944C115.667 51.6224 231.333 25.2908 347 16.7177C462.667 7.53225 578.333 16.7177 694 29.5773C809.667 43.0493 925.333 60.8078 1041 65.0944C1156.67 69.3809 1272.33 60.8078 1330.17 56.5213L1388 51.6224V263.5H1330.17C1272.33 263.5 1156.67 263.5 1041 263.5C925.333 263.5 809.667 263.5 694 263.5C578.333 263.5 462.667 263.5 347 263.5C231.333 263.5 115.667 263.5 57.8333 263.5H0V78.5664Z" fill="#F05D5E"/>
<path fill-rule="evenodd" clip-rule="evenodd" d="M1388 443.434L1330.17 456.906C1272.33 470.378 1156.67 496.709 1041 505.282C925.333 514.468 809.667 505.282 694 492.423C578.333 478.951 462.667 461.192 347 456.906C231.333 452.619 115.667 461.192 57.8333 465.479L7.62939e-06 470.378V258.5H57.8333C115.667 258.5 231.333 258.5 347 258.5C462.667 258.5 578.333 258.5 694 258.5C809.667 258.5 925.333 258.5 1041 258.5C1156.67 258.5 1272.33 258.5 1330.17 258.5H1388V443.434Z" fill="#F05D5E"/>
</g>
</svg>
