<svg width="48" height="48" viewBox="0 0 48 48" fill="none" xmlns="http://www.w3.org/2000/svg">
<path fill-rule="evenodd" clip-rule="evenodd" d="M16.83 0C11.936 0 8 4.106 8 9.136C8 12.194 9.456 14.91 11.694 16.568C10.5406 17.4322 9.60562 18.5546 8.96413 19.8452C8.32263 21.1358 7.99244 22.5588 8 24C8 27.06 9.456 29.774 11.694 31.432C10.5406 32.2962 9.60562 33.4186 8.96413 34.7092C8.32263 35.9998 7.99244 37.4228 8 38.864C8 43.894 11.936 48 16.83 48C21.722 48 25.66 43.894 25.66 38.864V31.14C27.2067 32.4296 29.1563 33.1365 31.17 33.138C36.064 33.136 40 29.03 40 24C40.008 22.5587 39.678 21.1356 39.0365 19.8449C38.395 18.5542 37.4598 17.4318 36.306 16.568C37.4594 15.7038 38.3944 14.5814 39.0359 13.2908C39.6774 12.0002 40.0076 10.5772 40 9.136C40 4.106 36.064 0 31.17 0H16.83V0ZM11.318 9.136C11.318 5.954 13.802 3.406 16.83 3.406H22.34V14.866H16.83C13.802 14.866 11.318 12.316 11.318 9.136V9.136ZM31.17 14.864H25.66V3.404H31.17C34.2 3.404 36.682 5.954 36.682 9.136C36.682 12.316 34.2 14.864 31.17 14.864ZM11.32 24C11.32 20.82 13.804 18.27 16.832 18.27H22.342V29.73H16.83C13.8 29.73 11.318 27.18 11.318 24H11.32ZM25.66 24C25.66 20.82 28.144 18.27 31.172 18.27C34.202 18.27 36.684 20.818 36.684 24C36.684 27.18 34.202 29.73 31.172 29.73C28.144 29.73 25.662 27.182 25.662 24H25.66ZM11.32 38.864C11.32 35.684 13.804 33.136 16.832 33.136H22.342V38.864C22.342 42.046 19.862 44.594 16.832 44.594C13.804 44.594 11.32 42.046 11.32 38.864Z" fill="white"/>
</svg>
