<svg width="48" height="48" viewBox="0 0 48 48" fill="none" xmlns="http://www.w3.org/2000/svg">
<path d="M43.9999 6.94118V41.0588C43.9999 41.8389 43.6901 42.587 43.1385 43.1386C42.5869 43.6901 41.8388 44 41.0587 44H6.9411C6.16105 44 5.41295 43.6901 4.86137 43.1386C4.3098 42.587 3.99992 41.8389 3.99992 41.0588V6.94118C3.99992 6.16113 4.3098 5.41303 4.86137 4.86145C5.41295 4.30987 6.16105 4 6.9411 4H41.0587C41.8388 4 42.5869 4.30987 43.1385 4.86145C43.6901 5.41303 43.9999 6.16113 43.9999 6.94118V6.94118ZM15.7646 19.2941H9.88228V38.1177H15.7646V19.2941ZM16.294 12.8235C16.2971 12.3786 16.2126 11.9374 16.0452 11.5251C15.8777 11.1128 15.6308 10.7376 15.3183 10.4208C15.0059 10.104 14.6341 9.85179 14.2242 9.67866C13.8143 9.50554 13.3743 9.41484 12.9293 9.41177H12.8235C11.9186 9.41177 11.0508 9.77122 10.411 10.411C9.77114 11.0509 9.41169 11.9187 9.41169 12.8235C9.41169 13.7284 9.77114 14.5962 10.411 15.236C11.0508 15.8758 11.9186 16.2353 12.8235 16.2353V16.2353C13.2684 16.2462 13.7112 16.1694 14.1265 16.0092C14.5418 15.8489 14.9214 15.6084 15.2437 15.3014C15.566 14.9944 15.8247 14.6269 16.0049 14.2199C16.1851 13.8129 16.2834 13.3744 16.294 12.9294V12.8235ZM38.1176 26.6824C38.1176 21.0235 34.5176 18.8235 30.9411 18.8235C29.7701 18.7649 28.6042 19.0143 27.5596 19.5469C26.5151 20.0795 25.6285 20.8766 24.9882 21.8588H24.8235V19.2941H19.294V38.1177H25.1764V28.1059C25.0914 27.0805 25.4144 26.063 26.0752 25.2744C26.736 24.4858 27.6814 23.9898 28.7058 23.8941H28.9293C30.7999 23.8941 32.1882 25.0706 32.1882 28.0353V38.1177H38.0705L38.1176 26.6824Z" stroke="white" stroke-width="2.07951" stroke-linejoin="round"/>
</svg>
