<svg width="48" height="48" viewBox="0 0 48 48" fill="none" xmlns="http://www.w3.org/2000/svg">
<path d="M26.8185 24.494C26.8185 31.3944 21.2627 36.9886 14.409 36.9886C7.55535 36.9886 1.99994 31.3961 1.99994 24.494C1.99994 17.5918 7.55577 11.9998 14.409 11.9998C21.2623 11.9998 26.8185 17.5935 26.8185 24.494ZM40.4319 24.494C40.4319 30.9899 37.6538 36.2554 34.2271 36.2554C30.8005 36.2554 28.0224 30.9882 28.0224 24.494C28.0224 17.9997 30.8005 12.7325 34.2271 12.7325C37.6538 12.7325 40.4319 17.9997 40.4319 24.494ZM45.9999 24.494C45.9999 30.314 45.0228 35.0317 43.8176 35.0317C42.6125 35.0317 41.6353 30.3123 41.6353 24.494C41.6353 18.6756 42.6125 13.9562 43.8181 13.9562C45.0236 13.9562 45.9999 18.6743 45.9999 24.494Z" stroke="white" stroke-width="2.07951" stroke-linejoin="round"/>
</svg>
