<svg width="48" height="48" viewBox="0 0 48 48" fill="none" xmlns="http://www.w3.org/2000/svg">
<path d="M3.99399 24C3.99399 32.5383 9.34565 39.8283 16.8773 42.6967C16.694 41.135 16.499 38.56 16.919 36.7533C17.2807 35.2 19.254 26.8567 19.254 26.8567C19.254 26.8567 18.659 25.665 18.659 23.9C18.659 21.1333 20.2623 19.0667 22.2607 19.0667C23.9607 19.0667 24.7807 20.3417 24.7807 21.87C24.7807 23.5783 23.6923 26.1317 23.1307 28.5C22.6623 30.4817 24.1257 32.0983 26.079 32.0983C29.6173 32.0983 32.339 28.3667 32.339 22.98C32.339 18.2117 28.9123 14.88 24.0207 14.88C18.3573 14.88 15.0323 19.1283 15.0323 23.52C15.0323 25.2317 15.6907 27.065 16.514 28.0633C16.5842 28.1387 16.6338 28.2309 16.658 28.3311C16.6822 28.4312 16.6803 28.5359 16.6523 28.635C16.5007 29.265 16.164 30.6167 16.099 30.8933C16.0107 31.2567 15.8107 31.335 15.4323 31.1583C12.9457 30.0017 11.3923 26.3667 11.3923 23.4467C11.3923 17.165 15.954 11.3983 24.5457 11.3983C31.4523 11.3983 36.8207 16.32 36.8207 22.8967C36.8207 29.7583 32.4957 35.2817 26.489 35.2817C24.4707 35.2817 22.5757 34.2317 21.9257 32.9933C21.9257 32.9933 20.9273 36.7967 20.6857 37.7267C20.2157 39.5333 18.9123 41.82 18.104 43.1183C19.9673 43.6917 21.944 44 23.994 44C35.039 44 43.994 35.045 43.994 24C43.994 12.955 35.039 4 23.994 4C12.949 4 3.99399 12.955 3.99399 24Z" stroke="white" stroke-width="2.07951" stroke-linejoin="round"/>
</svg>
