<svg width="48" height="48" viewBox="0 0 48 48" fill="none" xmlns="http://www.w3.org/2000/svg">
<path d="M18.6663 4C16.4572 4 14.6666 5.79462 14.6666 8.00777C14.666 8.53355 14.7691 9.05428 14.9698 9.54024C15.1705 10.0262 15.465 10.4679 15.8364 10.84C16.2078 11.2122 16.6489 11.5075 17.1344 11.7092C17.62 11.9109 18.1405 12.015 18.6663 12.0155H22.6667V8.00777C22.6676 6.94585 22.2466 5.92705 21.4964 5.17547C20.7462 4.42389 19.7282 4.00107 18.6663 4ZM18.6663 14.6874H7.99967C5.79055 14.6874 3.99994 16.482 3.99994 18.6958C3.99994 20.909 5.79055 22.7036 7.99967 22.7036H18.667C20.8754 22.7036 22.6667 20.909 22.6667 18.6958C22.6667 16.482 20.8754 14.6874 18.6663 14.6874Z" stroke="white" stroke-width="2.07951" stroke-linejoin="round"/>
<path d="M43.9999 18.6958C43.9999 16.482 42.2087 14.6874 39.9995 14.6874C37.7904 14.6874 35.9998 16.482 35.9998 18.6958V22.7036H39.9995C41.0615 22.7025 42.0795 22.2797 42.8297 21.5281C43.5799 20.7765 44.0008 19.7577 43.9999 18.6958ZM33.3333 18.6958V8.00777C33.3342 6.94585 32.9133 5.92705 32.1631 5.17547C31.4128 4.42389 30.3948 4.00107 29.3329 4C27.1238 4 25.3332 5.79462 25.3332 8.00777V18.6951C25.3332 20.9096 27.1238 22.7043 29.3329 22.7043C30.3948 22.7032 31.4128 22.2804 32.1631 21.5288C32.9133 20.7772 33.3342 19.7577 33.3333 18.6958Z" stroke="white" stroke-width="2.07951" stroke-linejoin="round"/>
<path d="M29.3329 44.079C30.3948 44.078 31.4128 43.6551 32.1631 42.9035C32.9133 42.152 33.3342 41.1332 33.3333 40.0712C33.3342 39.0093 32.9133 37.9905 32.1631 37.239C31.4128 36.4874 30.3948 36.0645 29.3329 36.0635H25.3332V40.0712C25.3332 42.2844 27.1238 44.079 29.3329 44.079ZM29.3329 33.3916H40.0002C42.2087 33.3916 43.9999 31.597 43.9999 29.3832C44.0008 28.3213 43.5799 27.3025 42.8297 26.5509C42.0795 25.7993 41.0615 25.3765 39.9995 25.3754H29.3329C27.1238 25.3754 25.3332 27.1701 25.3332 29.3832C25.3327 29.909 25.4357 30.4297 25.6364 30.9157C25.8371 31.4016 26.1316 31.8433 26.503 32.2155C26.8744 32.5876 27.3155 32.883 27.8011 33.0847C28.2866 33.2864 28.8071 33.3911 29.3329 33.3916Z" stroke="white" stroke-width="2.07951" stroke-linejoin="round"/>
<path d="M3.99994 29.3832C3.99941 29.909 4.10245 30.4297 4.30317 30.9157C4.50389 31.4016 4.79836 31.8433 5.16977 32.2155C5.54118 32.5876 5.98225 32.883 6.46781 33.0847C6.95336 33.2864 7.47389 33.3904 7.99967 33.391C9.06159 33.3899 10.0796 32.9671 10.8298 32.2155C11.58 31.4639 12.001 30.4451 12.0001 29.3832V25.3754H7.99967C5.79055 25.3754 3.99994 27.1701 3.99994 29.3832ZM14.6666 29.3832V40.0706C14.6666 42.2844 16.4572 44.079 18.6663 44.079C19.7282 44.078 20.7462 43.6551 21.4964 42.9035C22.2466 42.152 22.6676 41.1332 22.6667 40.0712V29.3832C22.6672 28.8574 22.5642 28.3366 22.3634 27.8506C22.1626 27.3646 21.8681 26.9229 21.4966 26.5507C21.1251 26.1785 20.684 25.8832 20.1984 25.6815C19.7127 25.4799 19.1921 25.3759 18.6663 25.3754C16.4572 25.3754 14.6666 27.1701 14.6666 29.3832Z" stroke="white" stroke-width="2.07951" stroke-linejoin="round"/>
</svg>
